<svg width="721.101" height="75" viewBox="0 0 721.101 75" xmlns="http://www.w3.org/2000/svg"><g id="svgGroup" stroke-linecap="round" fill-rule="evenodd" font-size="9pt" stroke="#000" stroke-width="0.25mm" fill="#000" style="stroke:#000;stroke-width:0.25mm;fill:#000"><path d="M 193.701 5.1 L 193.701 54.6 Q 193.701 59.2 192.351 62.95 A 13.652 13.652 0 0 1 188.48 68.583 A 16.792 16.792 0 0 1 187.551 69.35 Q 184.101 72 178.101 73.5 A 43.552 43.552 0 0 1 173.193 74.407 Q 168.65 75 162.801 75 A 95.532 95.532 0 0 1 156.797 74.823 Q 153.867 74.638 151.361 74.26 A 41.479 41.479 0 0 1 147.501 73.5 A 36.35 36.35 0 0 1 143.518 72.274 Q 140.261 71.048 138.051 69.35 A 14.946 14.946 0 0 1 134.799 65.97 A 13.208 13.208 0 0 1 133.251 62.95 A 22.736 22.736 0 0 1 132.064 57.696 A 28.556 28.556 0 0 1 131.901 54.6 L 131.901 5.1 A 6.709 6.709 0 0 1 131.968 4.114 Q 132.043 3.614 132.2 3.216 A 2.506 2.506 0 0 1 132.751 2.35 A 2.527 2.527 0 0 1 133.655 1.784 Q 134.402 1.5 135.501 1.5 L 151.201 1.5 A 6.709 6.709 0 0 1 152.187 1.567 Q 152.687 1.642 153.085 1.799 A 2.506 2.506 0 0 1 153.951 2.35 A 2.527 2.527 0 0 1 154.517 3.254 Q 154.801 4.002 154.801 5.1 L 154.801 50.7 A 4.301 4.301 0 0 0 156.119 53.879 A 5.313 5.313 0 0 0 156.301 54.05 A 3.521 3.521 0 0 0 157.359 54.672 Q 159.053 55.349 162.47 55.397 A 37.874 37.874 0 0 0 163.001 55.4 A 32.568 32.568 0 0 0 165.138 55.336 Q 168.28 55.128 169.543 54.253 A 2.582 2.582 0 0 0 169.801 54.05 A 4.471 4.471 0 0 0 170.982 52.406 A 4.486 4.486 0 0 0 171.301 50.7 L 171.301 5.1 A 6.709 6.709 0 0 1 171.368 4.114 Q 171.443 3.614 171.6 3.216 A 2.506 2.506 0 0 1 172.151 2.35 A 2.527 2.527 0 0 1 173.055 1.784 Q 173.802 1.5 174.901 1.5 L 190.101 1.5 A 6.709 6.709 0 0 1 191.087 1.567 Q 191.587 1.642 191.985 1.799 A 2.506 2.506 0 0 1 192.851 2.35 A 2.527 2.527 0 0 1 193.417 3.254 Q 193.701 4.002 193.701 5.1 Z M 648.701 5.1 L 648.701 54.6 Q 648.701 59.2 647.351 62.95 A 13.652 13.652 0 0 1 643.48 68.583 A 16.792 16.792 0 0 1 642.551 69.35 Q 639.101 72 633.101 73.5 A 43.552 43.552 0 0 1 628.193 74.407 Q 623.65 75 617.801 75 A 95.532 95.532 0 0 1 611.797 74.823 Q 608.867 74.638 606.361 74.26 A 41.479 41.479 0 0 1 602.501 73.5 A 36.35 36.35 0 0 1 598.518 72.274 Q 595.261 71.048 593.051 69.35 A 14.946 14.946 0 0 1 589.799 65.97 A 13.208 13.208 0 0 1 588.251 62.95 A 22.736 22.736 0 0 1 587.064 57.696 A 28.556 28.556 0 0 1 586.901 54.6 L 586.901 5.1 A 6.709 6.709 0 0 1 586.968 4.114 Q 587.043 3.614 587.2 3.216 A 2.506 2.506 0 0 1 587.751 2.35 A 2.527 2.527 0 0 1 588.655 1.784 Q 589.402 1.5 590.501 1.5 L 606.201 1.5 A 6.709 6.709 0 0 1 607.187 1.567 Q 607.687 1.642 608.085 1.799 A 2.506 2.506 0 0 1 608.951 2.35 A 2.527 2.527 0 0 1 609.517 3.254 Q 609.801 4.002 609.801 5.1 L 609.801 50.7 A 4.301 4.301 0 0 0 611.119 53.879 A 5.313 5.313 0 0 0 611.301 54.05 A 3.521 3.521 0 0 0 612.359 54.672 Q 614.053 55.349 617.47 55.397 A 37.874 37.874 0 0 0 618.001 55.4 A 32.568 32.568 0 0 0 620.138 55.336 Q 623.28 55.128 624.543 54.253 A 2.582 2.582 0 0 0 624.801 54.05 A 4.471 4.471 0 0 0 625.982 52.406 A 4.486 4.486 0 0 0 626.301 50.7 L 626.301 5.1 A 6.709 6.709 0 0 1 626.368 4.114 Q 626.443 3.614 626.6 3.216 A 2.506 2.506 0 0 1 627.151 2.35 A 2.527 2.527 0 0 1 628.055 1.784 Q 628.802 1.5 629.901 1.5 L 645.101 1.5 A 6.709 6.709 0 0 1 646.087 1.567 Q 646.587 1.642 646.985 1.799 A 2.506 2.506 0 0 1 647.851 2.35 A 2.527 2.527 0 0 1 648.417 3.254 Q 648.701 4.002 648.701 5.1 Z M 35.201 73.5 L 3.601 73.5 A 6.709 6.709 0 0 1 2.615 73.433 Q 2.115 73.358 1.717 73.201 A 2.506 2.506 0 0 1 0.851 72.65 A 2.527 2.527 0 0 1 0.285 71.746 Q 0.001 70.999 0.001 69.9 L 0.001 58.2 A 6.709 6.709 0 0 1 0.068 57.214 Q 0.143 56.714 0.3 56.316 A 2.506 2.506 0 0 1 0.851 55.45 A 2.527 2.527 0 0 1 1.755 54.884 Q 2.502 54.6 3.601 54.6 L 30.501 54.6 A 3.147 3.147 0 0 0 31.284 54.509 A 2.071 2.071 0 0 0 32.451 53.75 A 3.149 3.149 0 0 0 33.076 52.156 A 4.083 4.083 0 0 0 33.101 51.7 Q 33.101 50.088 32.517 49.286 A 2.028 2.028 0 0 0 32.451 49.2 A 2.307 2.307 0 0 0 31.368 48.468 Q 31.003 48.345 30.562 48.305 A 4.475 4.475 0 0 0 30.501 48.3 L 15.501 46.2 A 27.937 27.937 0 0 1 10.452 45.022 Q 6.841 43.794 4.251 41.6 Q 0.001 38 0.001 29.6 L 0.001 19.1 A 20.978 20.978 0 0 1 0.651 13.723 A 14.515 14.515 0 0 1 5.501 6.05 Q 10.24 2.13 18.096 1.587 A 37.816 37.816 0 0 1 20.701 1.5 L 48.701 1.5 A 6.709 6.709 0 0 1 49.687 1.567 Q 50.187 1.642 50.585 1.799 A 2.506 2.506 0 0 1 51.451 2.35 A 2.527 2.527 0 0 1 52.017 3.254 Q 52.301 4.002 52.301 5.1 L 52.301 17 A 6.709 6.709 0 0 1 52.234 17.986 Q 52.159 18.486 52.002 18.884 A 2.506 2.506 0 0 1 51.451 19.75 A 2.527 2.527 0 0 1 50.547 20.316 Q 49.799 20.6 48.701 20.6 L 25.401 20.6 A 3.182 3.182 0 0 0 24.578 20.701 A 2.231 2.231 0 0 0 23.401 21.45 A 3.021 3.021 0 0 0 22.763 22.868 A 4.172 4.172 0 0 0 22.701 23.6 A 4.004 4.004 0 0 0 22.845 24.696 A 3.203 3.203 0 0 0 23.401 25.8 A 2.531 2.531 0 0 0 24.916 26.731 A 3.589 3.589 0 0 0 25.401 26.8 L 40.301 28.8 Q 47.301 29.8 51.601 33.4 A 10.794 10.794 0 0 1 54.74 37.968 Q 55.429 39.79 55.709 42.068 A 27.368 27.368 0 0 1 55.901 45.4 L 55.901 55.9 A 20.799 20.799 0 0 1 55.245 61.277 A 14.5 14.5 0 0 1 50.351 68.95 Q 45.462 72.958 37.431 73.436 A 37.582 37.582 0 0 1 35.201 73.5 Z M 698.501 73.5 L 682.301 73.5 A 6.709 6.709 0 0 1 681.315 73.433 Q 680.815 73.358 680.417 73.201 A 2.506 2.506 0 0 1 679.551 72.65 A 2.527 2.527 0 0 1 678.985 71.746 Q 678.701 70.999 678.701 69.9 L 678.701 57.1 L 663.401 36.6 Q 661.107 33.509 660.355 31.213 A 9.422 9.422 0 0 1 660.351 31.2 A 11.611 11.611 0 0 1 659.972 29.632 Q 659.683 28.002 659.619 25.684 A 50.053 50.053 0 0 1 659.601 24.3 L 659.601 5.1 A 6.709 6.709 0 0 1 659.668 4.114 Q 659.743 3.614 659.9 3.216 A 2.506 2.506 0 0 1 660.451 2.35 A 2.527 2.527 0 0 1 661.355 1.784 Q 662.102 1.5 663.201 1.5 L 678.601 1.5 A 6.709 6.709 0 0 1 679.587 1.567 Q 680.087 1.642 680.485 1.799 A 2.506 2.506 0 0 1 681.351 2.35 A 2.527 2.527 0 0 1 681.917 3.254 Q 682.201 4.002 682.201 5.1 L 682.201 21.5 A 22.326 22.326 0 0 0 682.255 23.023 A 25.913 25.913 0 0 0 682.301 23.6 A 4.173 4.173 0 0 0 682.859 25.322 A 5.124 5.124 0 0 0 683.101 25.7 L 687.701 32.9 A 6.052 6.052 0 0 0 688.034 33.437 Q 688.217 33.698 688.407 33.896 A 2.571 2.571 0 0 0 688.751 34.2 A 2.062 2.062 0 0 0 689.625 34.561 A 2.785 2.785 0 0 0 690.101 34.6 L 691.101 34.6 A 2.653 2.653 0 0 0 691.748 34.525 A 2.017 2.017 0 0 0 692.451 34.2 A 2.664 2.664 0 0 0 692.856 33.83 Q 693.188 33.463 693.501 32.9 L 698.101 25.7 Q 698.801 24.7 698.901 23.6 A 24.225 24.225 0 0 0 698.993 22.071 A 20.862 20.862 0 0 0 699.001 21.5 L 699.001 5.1 A 6.709 6.709 0 0 1 699.068 4.114 Q 699.143 3.614 699.3 3.216 A 2.506 2.506 0 0 1 699.851 2.35 A 2.527 2.527 0 0 1 700.755 1.784 Q 701.502 1.5 702.601 1.5 L 717.501 1.5 A 6.709 6.709 0 0 1 718.487 1.567 Q 718.987 1.642 719.385 1.799 A 2.506 2.506 0 0 1 720.251 2.35 A 2.527 2.527 0 0 1 720.817 3.254 Q 721.101 4.002 721.101 5.1 L 721.101 24.3 A 42.501 42.501 0 0 1 721.038 26.706 Q 720.911 28.937 720.529 30.435 A 9.386 9.386 0 0 1 720.301 31.2 A 14.421 14.421 0 0 1 719.585 32.876 Q 719.165 33.721 718.594 34.652 A 35.038 35.038 0 0 1 717.301 36.6 L 702.101 57.2 L 702.101 69.9 A 6.709 6.709 0 0 1 702.034 70.886 Q 701.959 71.386 701.802 71.784 A 2.506 2.506 0 0 1 701.251 72.65 A 2.527 2.527 0 0 1 700.347 73.216 Q 699.599 73.5 698.501 73.5 Z M 226.101 73.5 L 210.601 73.5 A 6.709 6.709 0 0 1 209.615 73.433 Q 209.115 73.358 208.717 73.201 A 2.506 2.506 0 0 1 207.851 72.65 A 2.527 2.527 0 0 1 207.285 71.746 Q 207.001 70.999 207.001 69.9 L 207.001 5.1 A 6.709 6.709 0 0 1 207.068 4.114 Q 207.143 3.614 207.3 3.216 A 2.506 2.506 0 0 1 207.851 2.35 A 2.527 2.527 0 0 1 208.755 1.784 Q 209.502 1.5 210.601 1.5 L 255.201 1.5 A 6.709 6.709 0 0 1 256.187 1.567 Q 256.687 1.642 257.085 1.799 A 2.506 2.506 0 0 1 257.951 2.35 A 2.527 2.527 0 0 1 258.517 3.254 Q 258.801 4.002 258.801 5.1 L 258.801 17 A 6.709 6.709 0 0 1 258.734 17.986 Q 258.659 18.486 258.502 18.884 A 2.506 2.506 0 0 1 257.951 19.75 A 2.527 2.527 0 0 1 257.047 20.316 Q 256.299 20.6 255.201 20.6 L 229.701 20.6 L 229.701 31 L 247.101 31 A 6.709 6.709 0 0 1 248.087 31.067 Q 248.587 31.142 248.985 31.299 A 2.506 2.506 0 0 1 249.851 31.85 A 2.527 2.527 0 0 1 250.417 32.754 Q 250.701 33.502 250.701 34.6 L 250.701 46.6 A 6.709 6.709 0 0 1 250.634 47.586 Q 250.559 48.086 250.402 48.484 A 2.506 2.506 0 0 1 249.851 49.35 A 2.527 2.527 0 0 1 248.947 49.916 Q 248.199 50.2 247.101 50.2 L 229.701 50.2 L 229.701 69.9 A 6.709 6.709 0 0 1 229.634 70.886 Q 229.559 71.386 229.402 71.784 A 2.506 2.506 0 0 1 228.851 72.65 A 2.527 2.527 0 0 1 227.947 73.216 Q 227.199 73.5 226.101 73.5 Z M 287.901 73.5 L 272.401 73.5 A 6.709 6.709 0 0 1 271.415 73.433 Q 270.915 73.358 270.517 73.201 A 2.506 2.506 0 0 1 269.651 72.65 A 2.527 2.527 0 0 1 269.085 71.746 Q 268.801 70.999 268.801 69.9 L 268.801 5.1 A 6.709 6.709 0 0 1 268.868 4.114 Q 268.943 3.614 269.1 3.216 A 2.506 2.506 0 0 1 269.651 2.35 A 2.527 2.527 0 0 1 270.555 1.784 Q 271.302 1.5 272.401 1.5 L 317.001 1.5 A 6.709 6.709 0 0 1 317.987 1.567 Q 318.487 1.642 318.885 1.799 A 2.506 2.506 0 0 1 319.751 2.35 A 2.527 2.527 0 0 1 320.317 3.254 Q 320.601 4.002 320.601 5.1 L 320.601 17 A 6.709 6.709 0 0 1 320.534 17.986 Q 320.459 18.486 320.302 18.884 A 2.506 2.506 0 0 1 319.751 19.75 A 2.527 2.527 0 0 1 318.847 20.316 Q 318.099 20.6 317.001 20.6 L 291.501 20.6 L 291.501 31 L 308.901 31 A 6.709 6.709 0 0 1 309.887 31.067 Q 310.387 31.142 310.785 31.299 A 2.506 2.506 0 0 1 311.651 31.85 A 2.527 2.527 0 0 1 312.217 32.754 Q 312.501 33.502 312.501 34.6 L 312.501 46.6 A 6.709 6.709 0 0 1 312.434 47.586 Q 312.359 48.086 312.202 48.484 A 2.506 2.506 0 0 1 311.651 49.35 A 2.527 2.527 0 0 1 310.747 49.916 Q 309.999 50.2 308.901 50.2 L 291.501 50.2 L 291.501 69.9 A 6.709 6.709 0 0 1 291.434 70.886 Q 291.359 71.386 291.202 71.784 A 2.506 2.506 0 0 1 290.651 72.65 A 2.527 2.527 0 0 1 289.747 73.216 Q 288.999 73.5 287.901 73.5 Z M 100.801 73.5 L 84.601 73.5 A 6.709 6.709 0 0 1 83.615 73.433 Q 83.115 73.358 82.717 73.201 A 2.506 2.506 0 0 1 81.851 72.65 A 2.527 2.527 0 0 1 81.285 71.746 Q 81.001 70.999 81.001 69.9 L 81.001 20.8 L 66.301 20.8 A 6.709 6.709 0 0 1 65.315 20.733 Q 64.815 20.658 64.417 20.501 A 2.506 2.506 0 0 1 63.551 19.95 A 2.527 2.527 0 0 1 62.985 19.046 Q 62.701 18.299 62.701 17.2 L 62.701 5.1 A 6.709 6.709 0 0 1 62.768 4.114 Q 62.843 3.614 63 3.216 A 2.506 2.506 0 0 1 63.551 2.35 A 2.527 2.527 0 0 1 64.455 1.784 Q 65.202 1.5 66.301 1.5 L 119.101 1.5 A 6.709 6.709 0 0 1 120.087 1.567 Q 120.587 1.642 120.985 1.799 A 2.506 2.506 0 0 1 121.851 2.35 A 2.527 2.527 0 0 1 122.417 3.254 Q 122.701 4.002 122.701 5.1 L 122.701 17.2 A 6.709 6.709 0 0 1 122.634 18.186 Q 122.559 18.686 122.402 19.084 A 2.506 2.506 0 0 1 121.851 19.95 A 2.527 2.527 0 0 1 120.947 20.516 Q 120.199 20.8 119.101 20.8 L 104.401 20.8 L 104.401 69.9 A 6.709 6.709 0 0 1 104.334 70.886 Q 104.259 71.386 104.102 71.784 A 2.506 2.506 0 0 1 103.551 72.65 A 2.527 2.527 0 0 1 102.647 73.216 Q 101.899 73.5 100.801 73.5 Z M 387.101 73.5 L 370.901 73.5 A 6.709 6.709 0 0 1 369.915 73.433 Q 369.415 73.358 369.017 73.201 A 2.506 2.506 0 0 1 368.151 72.65 A 2.527 2.527 0 0 1 367.585 71.746 Q 367.301 70.999 367.301 69.9 L 367.301 20.8 L 352.601 20.8 A 6.709 6.709 0 0 1 351.615 20.733 Q 351.115 20.658 350.717 20.501 A 2.506 2.506 0 0 1 349.851 19.95 A 2.527 2.527 0 0 1 349.285 19.046 Q 349.001 18.299 349.001 17.2 L 349.001 5.1 A 6.709 6.709 0 0 1 349.068 4.114 Q 349.143 3.614 349.3 3.216 A 2.506 2.506 0 0 1 349.851 2.35 A 2.527 2.527 0 0 1 350.755 1.784 Q 351.502 1.5 352.601 1.5 L 405.401 1.5 A 6.709 6.709 0 0 1 406.387 1.567 Q 406.887 1.642 407.285 1.799 A 2.506 2.506 0 0 1 408.151 2.35 A 2.527 2.527 0 0 1 408.717 3.254 Q 409.001 4.002 409.001 5.1 L 409.001 17.2 A 6.709 6.709 0 0 1 408.934 18.186 Q 408.859 18.686 408.702 19.084 A 2.506 2.506 0 0 1 408.151 19.95 A 2.527 2.527 0 0 1 407.247 20.516 Q 406.499 20.8 405.401 20.8 L 390.701 20.8 L 390.701 69.9 A 6.709 6.709 0 0 1 390.634 70.886 Q 390.559 71.386 390.402 71.784 A 2.506 2.506 0 0 1 389.851 72.65 A 2.527 2.527 0 0 1 388.947 73.216 Q 388.199 73.5 387.101 73.5 Z M 556.901 73.5 L 518.501 73.5 A 6.709 6.709 0 0 1 517.515 73.433 Q 517.015 73.358 516.617 73.201 A 2.506 2.506 0 0 1 515.751 72.65 A 2.527 2.527 0 0 1 515.185 71.746 Q 514.901 70.999 514.901 69.9 L 514.901 5.1 A 6.709 6.709 0 0 1 514.968 4.114 Q 515.043 3.614 515.2 3.216 A 2.506 2.506 0 0 1 515.751 2.35 A 2.527 2.527 0 0 1 516.655 1.784 Q 517.402 1.5 518.501 1.5 L 550.401 1.5 A 40.967 40.967 0 0 1 555.51 1.797 Q 561.201 2.514 564.532 4.967 A 12.025 12.025 0 0 1 564.901 5.25 Q 569.601 9 569.601 16.8 L 569.601 21.6 Q 569.601 24.791 568.764 27.087 A 9.89 9.89 0 0 1 568.151 28.45 A 8.797 8.797 0 0 1 564.253 32.143 A 11.104 11.104 0 0 1 563.701 32.4 Q 570.101 33 573.201 36.8 A 12.289 12.289 0 0 1 575.319 40.792 Q 576.301 43.792 576.301 47.9 L 576.301 57.1 Q 576.301 65.5 571.551 69.5 Q 566.801 73.5 556.901 73.5 Z M 479.701 20.5 L 479.701 54.6 Q 479.701 59.2 478.351 62.95 A 13.652 13.652 0 0 1 474.48 68.583 A 16.792 16.792 0 0 1 473.551 69.35 A 18.6 18.6 0 0 1 470.319 71.314 Q 468.646 72.124 466.616 72.775 A 39.509 39.509 0 0 1 464.051 73.5 A 44.449 44.449 0 0 1 459.056 74.414 Q 456.501 74.744 453.544 74.888 A 99.601 99.601 0 0 1 448.701 75 Q 442.007 75 436.972 74.223 A 42.607 42.607 0 0 1 433.301 73.5 Q 428.952 72.431 425.95 70.777 A 17.336 17.336 0 0 1 423.751 69.35 A 14.946 14.946 0 0 1 420.499 65.97 A 13.208 13.208 0 0 1 418.951 62.95 A 22.736 22.736 0 0 1 417.764 57.696 A 28.556 28.556 0 0 1 417.601 54.6 L 417.601 20.5 Q 417.601 15.9 418.951 12.15 A 13.894 13.894 0 0 1 422.718 6.575 A 17.178 17.178 0 0 1 423.751 5.7 Q 426.433 3.601 430.716 2.228 A 38.828 38.828 0 0 1 433.301 1.5 A 45.243 45.243 0 0 1 438.326 0.586 Q 440.892 0.257 443.854 0.112 A 99.834 99.834 0 0 1 448.701 0 A 95.817 95.817 0 0 1 454.711 0.177 Q 457.689 0.365 460.237 0.752 A 42.13 42.13 0 0 1 464.051 1.5 Q 470.101 3 473.551 5.7 A 15.377 15.377 0 0 1 476.75 9.044 A 13.404 13.404 0 0 1 478.351 12.15 A 22.736 22.736 0 0 1 479.538 17.404 A 28.556 28.556 0 0 1 479.701 20.5 Z M 440.301 24.1 L 440.301 51 A 4.301 4.301 0 0 0 441.619 54.179 A 5.313 5.313 0 0 0 441.801 54.35 Q 443.194 55.604 447.954 55.693 A 39.961 39.961 0 0 0 448.701 55.7 A 33.743 33.743 0 0 0 450.877 55.636 Q 454.05 55.429 455.324 54.566 A 2.567 2.567 0 0 0 455.601 54.35 A 4.471 4.471 0 0 0 456.782 52.706 A 4.486 4.486 0 0 0 457.101 51 L 457.101 24.1 A 4.175 4.175 0 0 0 455.783 21.021 A 5.574 5.574 0 0 0 455.601 20.85 Q 454.207 19.596 449.448 19.507 A 39.961 39.961 0 0 0 448.701 19.5 A 33.743 33.743 0 0 0 446.525 19.565 Q 443.352 19.771 442.078 20.635 A 2.567 2.567 0 0 0 441.801 20.85 Q 440.301 22.2 440.301 24.1 Z M 550.401 44.7 L 537.401 44.7 L 537.401 56.5 L 550.401 56.5 A 5.737 5.737 0 0 0 551.489 56.404 Q 552.596 56.19 553.251 55.5 Q 554.011 54.7 554.163 53.258 A 7.25 7.25 0 0 0 554.201 52.5 L 554.201 48.6 A 6.671 6.671 0 0 0 554.118 47.512 Q 554.024 46.944 553.823 46.494 A 2.797 2.797 0 0 0 553.251 45.65 Q 552.464 44.863 551.026 44.728 A 6.683 6.683 0 0 0 550.401 44.7 Z M 545.901 18.5 L 537.401 18.5 L 537.401 29.3 L 545.901 29.3 A 5.737 5.737 0 0 0 546.989 29.204 Q 548.096 28.99 548.751 28.3 Q 549.511 27.5 549.663 26.058 A 7.25 7.25 0 0 0 549.701 25.3 L 549.701 22.5 A 6.703 6.703 0 0 0 549.613 21.374 Q 549.411 20.195 548.751 19.5 A 2.989 2.989 0 0 0 547.473 18.72 Q 546.994 18.565 546.411 18.52 A 6.507 6.507 0 0 0 545.901 18.5 Z" vector-effect="non-scaling-stroke"/></g></svg>